<svg width="389" height="102" viewBox="0 0 389 102" fill="none" xmlns="http://www.w3.org/2000/svg">
<g filter="url(#filter0_d_5796_31065)">
<rect x="10" y="8" width="369" height="82" rx="41" fill="white"/>
<circle cx="47" cy="49" r="7" fill="#6BB74D"/>
<path d="M83.3381 41.4545V56H81.321L73.9276 45.3324H73.7926V56H71.598V41.4545H73.6293L81.0298 52.1364H81.1648V41.4545H83.3381ZM91.0707 56.2202C89.9959 56.2202 89.0702 55.9905 88.2937 55.5312C87.5219 55.0672 86.9253 54.4162 86.5039 53.5781C86.0872 52.7353 85.8789 51.7481 85.8789 50.6165C85.8789 49.4991 86.0872 48.5142 86.5039 47.6619C86.9253 46.8097 87.5124 46.1444 88.2653 45.6662C89.0228 45.188 89.9083 44.9489 90.9215 44.9489C91.5371 44.9489 92.1336 45.0507 92.7113 45.2543C93.2889 45.4579 93.8074 45.7775 94.2667 46.2131C94.726 46.6487 95.0882 47.2145 95.3533 47.9105C95.6185 48.6018 95.7511 49.4422 95.7511 50.4318V51.1847H87.0792V49.5938H93.6701C93.6701 49.035 93.5565 48.5402 93.3292 48.1094C93.1019 47.6738 92.7823 47.3305 92.3704 47.0795C91.9632 46.8286 91.485 46.7031 90.9357 46.7031C90.3391 46.7031 89.8183 46.8499 89.3732 47.1435C88.9329 47.4323 88.592 47.8111 88.3505 48.2798C88.1138 48.7438 87.9954 49.2481 87.9954 49.7926V51.0355C87.9954 51.7647 88.1232 52.3849 88.3789 52.8963C88.6393 53.4077 89.0015 53.7983 89.4656 54.0682C89.9296 54.3333 90.4717 54.4659 91.092 54.4659C91.4944 54.4659 91.8614 54.4091 92.1928 54.2955C92.5243 54.1771 92.8107 54.0019 93.0522 53.7699C93.2937 53.5379 93.4783 53.2514 93.6062 52.9105L95.6161 53.2727C95.4551 53.8646 95.1663 54.383 94.7496 54.8281C94.3377 55.2685 93.8192 55.6117 93.1942 55.858C92.574 56.0994 91.8661 56.2202 91.0707 56.2202ZM100.453 56L97.2425 45.0909H99.4371L101.575 53.1023H101.681L103.826 45.0909H106.021L108.152 53.0668H108.258L110.382 45.0909H112.576L109.373 56H107.207L104.991 48.1236H104.828L102.612 56H100.453ZM123.059 56.2415C122.368 56.2415 121.743 56.1136 121.184 55.858C120.626 55.5975 120.183 55.2211 119.856 54.7287C119.534 54.2363 119.373 53.6326 119.373 52.9176C119.373 52.3021 119.492 51.7955 119.728 51.3977C119.965 51 120.285 50.6851 120.687 50.4531C121.09 50.2211 121.539 50.0459 122.037 49.9276C122.534 49.8092 123.04 49.7192 123.556 49.6577C124.21 49.5819 124.74 49.5204 125.147 49.473C125.555 49.4209 125.85 49.3381 126.035 49.2244C126.22 49.1108 126.312 48.9261 126.312 48.6705V48.6207C126.312 48.0005 126.137 47.5199 125.787 47.179C125.441 46.8381 124.925 46.6676 124.238 46.6676C123.523 46.6676 122.96 46.8262 122.548 47.1435C122.141 47.456 121.859 47.804 121.703 48.1875L119.707 47.733C119.944 47.0701 120.289 46.535 120.744 46.1278C121.203 45.7159 121.731 45.4176 122.328 45.233C122.924 45.0436 123.552 44.9489 124.21 44.9489C124.645 44.9489 125.107 45.0009 125.595 45.1051C126.087 45.2045 126.547 45.3892 126.973 45.6591C127.404 45.929 127.756 46.3149 128.031 46.8168C128.306 47.3139 128.443 47.9602 128.443 48.7557V56H126.369V54.5085H126.284C126.146 54.7831 125.94 55.053 125.666 55.3182C125.391 55.5833 125.038 55.8035 124.608 55.9787C124.177 56.1539 123.661 56.2415 123.059 56.2415ZM123.521 54.5369C124.108 54.5369 124.61 54.4209 125.027 54.1889C125.448 53.9569 125.768 53.6539 125.985 53.2798C126.208 52.901 126.319 52.4962 126.319 52.0653V50.6591C126.243 50.7348 126.097 50.8059 125.879 50.8722C125.666 50.9337 125.422 50.9882 125.147 51.0355C124.873 51.0781 124.605 51.1184 124.345 51.1562C124.084 51.1894 123.867 51.2178 123.691 51.2415C123.279 51.2936 122.903 51.3812 122.562 51.5043C122.226 51.6274 121.956 51.8049 121.752 52.0369C121.554 52.2642 121.454 52.5672 121.454 52.946C121.454 53.4716 121.648 53.8693 122.037 54.1392C122.425 54.4044 122.92 54.5369 123.521 54.5369ZM131.271 60.0909V45.0909H133.345V46.8594H133.523C133.646 46.6321 133.823 46.3693 134.055 46.071C134.287 45.7727 134.609 45.5123 135.021 45.2898C135.433 45.0625 135.978 44.9489 136.655 44.9489C137.536 44.9489 138.321 45.1714 139.013 45.6165C139.704 46.0616 140.246 46.7031 140.639 47.5412C141.037 48.3793 141.236 49.3878 141.236 50.5668C141.236 51.7457 141.039 52.7566 140.646 53.5994C140.253 54.4375 139.714 55.0838 139.027 55.5384C138.34 55.9882 137.557 56.2131 136.676 56.2131C136.013 56.2131 135.471 56.1018 135.05 55.8793C134.633 55.6567 134.306 55.3963 134.07 55.098C133.833 54.7997 133.651 54.5346 133.523 54.3026H133.395V60.0909H131.271ZM133.352 50.5455C133.352 51.3125 133.464 51.9848 133.686 52.5625C133.909 53.1402 134.231 53.5923 134.652 53.919C135.073 54.241 135.589 54.402 136.2 54.402C136.835 54.402 137.365 54.2339 137.791 53.8977C138.217 53.5568 138.539 53.0952 138.757 52.5128C138.98 51.9304 139.091 51.2746 139.091 50.5455C139.091 49.8258 138.982 49.1795 138.764 48.6065C138.551 48.0336 138.229 47.5814 137.798 47.25C137.372 46.9186 136.839 46.7528 136.2 46.7528C135.585 46.7528 135.064 46.9115 134.638 47.2287C134.216 47.5459 133.897 47.9886 133.679 48.5568C133.461 49.125 133.352 49.7879 133.352 50.5455ZM143.615 60.0909V45.0909H145.689V46.8594H145.866C145.99 46.6321 146.167 46.3693 146.399 46.071C146.631 45.7727 146.953 45.5123 147.365 45.2898C147.777 45.0625 148.321 44.9489 148.999 44.9489C149.879 44.9489 150.665 45.1714 151.357 45.6165C152.048 46.0616 152.59 46.7031 152.983 47.5412C153.381 48.3793 153.58 49.3878 153.58 50.5668C153.58 51.7457 153.383 52.7566 152.99 53.5994C152.597 54.4375 152.057 55.0838 151.371 55.5384C150.684 55.9882 149.901 56.2131 149.02 56.2131C148.357 56.2131 147.815 56.1018 147.393 55.8793C146.977 55.6567 146.65 55.3963 146.413 55.098C146.177 54.7997 145.994 54.5346 145.866 54.3026H145.739V60.0909H143.615ZM145.696 50.5455C145.696 51.3125 145.807 51.9848 146.03 52.5625C146.252 53.1402 146.574 53.5923 146.996 53.919C147.417 54.241 147.933 54.402 148.544 54.402C149.179 54.402 149.709 54.2339 150.135 53.8977C150.561 53.5568 150.883 53.0952 151.101 52.5128C151.323 51.9304 151.435 51.2746 151.435 50.5455C151.435 49.8258 151.326 49.1795 151.108 48.6065C150.895 48.0336 150.573 47.5814 150.142 47.25C149.716 46.9186 149.183 46.7528 148.544 46.7528C147.929 46.7528 147.408 46.9115 146.982 47.2287C146.56 47.5459 146.241 47.9886 146.023 48.5568C145.805 49.125 145.696 49.7879 145.696 50.5455ZM160.554 56.2202C159.531 56.2202 158.639 55.9858 157.876 55.517C157.114 55.0483 156.522 54.3925 156.101 53.5497C155.679 52.7069 155.469 51.7221 155.469 50.5952C155.469 49.4635 155.679 48.474 156.101 47.6264C156.522 46.7789 157.114 46.1207 157.876 45.652C158.639 45.1832 159.531 44.9489 160.554 44.9489C161.577 44.9489 162.469 45.1832 163.232 45.652C163.994 46.1207 164.586 46.7789 165.007 47.6264C165.429 48.474 165.639 49.4635 165.639 50.5952C165.639 51.7221 165.429 52.7069 165.007 53.5497C164.586 54.3925 163.994 55.0483 163.232 55.517C162.469 55.9858 161.577 56.2202 160.554 56.2202ZM160.561 54.4375C161.224 54.4375 161.773 54.2623 162.209 53.9119C162.644 53.5616 162.966 53.0952 163.175 52.5128C163.388 51.9304 163.494 51.2888 163.494 50.5881C163.494 49.892 163.388 49.2528 163.175 48.6705C162.966 48.0833 162.644 47.6122 162.209 47.2571C161.773 46.902 161.224 46.7244 160.561 46.7244C159.893 46.7244 159.339 46.902 158.899 47.2571C158.464 47.6122 158.139 48.0833 157.926 48.6705C157.718 49.2528 157.614 49.892 157.614 50.5881C157.614 51.2888 157.718 51.9304 157.926 52.5128C158.139 53.0952 158.464 53.5616 158.899 53.9119C159.339 54.2623 159.893 54.4375 160.561 54.4375ZM168.01 56V45.0909H170.133V56H168.01ZM169.082 43.4077C168.713 43.4077 168.395 43.2846 168.13 43.0384C167.87 42.7874 167.74 42.4891 167.74 42.1435C167.74 41.7931 167.87 41.4948 168.13 41.2486C168.395 40.9976 168.713 40.8722 169.082 40.8722C169.451 40.8722 169.766 40.9976 170.027 41.2486C170.292 41.4948 170.424 41.7931 170.424 42.1435C170.424 42.4891 170.292 42.7874 170.027 43.0384C169.766 43.2846 169.451 43.4077 169.082 43.4077ZM175.114 49.5227V56H172.99V45.0909H175.028V46.8665H175.163C175.414 46.2888 175.807 45.8248 176.342 45.4744C176.882 45.1241 177.562 44.9489 178.381 44.9489C179.124 44.9489 179.775 45.1051 180.334 45.4176C180.893 45.7254 181.326 46.1847 181.634 46.7955C181.941 47.4062 182.095 48.1615 182.095 49.0611V56H179.972V49.3168C179.972 48.526 179.766 47.9081 179.354 47.4631C178.942 47.0133 178.376 46.7884 177.656 46.7884C177.164 46.7884 176.726 46.8949 176.342 47.108C175.964 47.321 175.663 47.6335 175.44 48.0455C175.223 48.4527 175.114 48.9451 175.114 49.5227ZM190.036 45.0909V46.7955H184.077V45.0909H190.036ZM185.675 42.4773H187.798V52.7969C187.798 53.2088 187.86 53.5189 187.983 53.7273C188.106 53.9309 188.265 54.0705 188.459 54.1463C188.658 54.2173 188.873 54.2528 189.105 54.2528C189.276 54.2528 189.425 54.241 189.553 54.2173C189.68 54.1937 189.78 54.1747 189.851 54.1605L190.234 55.9148C190.111 55.9621 189.936 56.0095 189.709 56.0568C189.482 56.1089 189.197 56.1373 188.857 56.142C188.298 56.1515 187.777 56.0521 187.294 55.8438C186.811 55.6354 186.42 55.3134 186.122 54.8778C185.824 54.4422 185.675 53.8954 185.675 53.2372V42.4773ZM192.385 56V45.0909H194.423V46.8665H194.558C194.785 46.2652 195.157 45.7964 195.673 45.4602C196.189 45.1193 196.807 44.9489 197.527 44.9489C198.256 44.9489 198.867 45.1193 199.359 45.4602C199.856 45.8011 200.223 46.2699 200.46 46.8665H200.574C200.834 46.2841 201.248 45.8201 201.816 45.4744C202.385 45.1241 203.062 44.9489 203.848 44.9489C204.837 44.9489 205.645 45.259 206.27 45.8793C206.899 46.4995 207.214 47.4347 207.214 48.6847V56H205.091V48.8835C205.091 48.1449 204.889 47.6098 204.487 47.2784C204.084 46.947 203.604 46.7812 203.045 46.7812C202.354 46.7812 201.816 46.9943 201.433 47.4205C201.049 47.8419 200.858 48.384 200.858 49.0469V56H198.741V48.7486C198.741 48.1567 198.556 47.6809 198.187 47.321C197.818 46.9612 197.337 46.7812 196.745 46.7812C196.343 46.7812 195.971 46.8878 195.63 47.1009C195.294 47.3092 195.022 47.6004 194.814 47.9744C194.61 48.3485 194.508 48.7817 194.508 49.2741V56H192.385ZM214.762 56.2202C213.687 56.2202 212.762 55.9905 211.985 55.5312C211.213 55.0672 210.617 54.4162 210.195 53.5781C209.779 52.7353 209.57 51.7481 209.57 50.6165C209.57 49.4991 209.779 48.5142 210.195 47.6619C210.617 46.8097 211.204 46.1444 211.957 45.6662C212.714 45.188 213.6 44.9489 214.613 44.9489C215.228 44.9489 215.825 45.0507 216.403 45.2543C216.98 45.4579 217.499 45.7775 217.958 46.2131C218.417 46.6487 218.78 47.2145 219.045 47.9105C219.31 48.6018 219.442 49.4422 219.442 50.4318V51.1847H210.771V49.5938H217.362C217.362 49.035 217.248 48.5402 217.021 48.1094C216.793 47.6738 216.474 47.3305 216.062 47.0795C215.655 46.8286 215.176 46.7031 214.627 46.7031C214.031 46.7031 213.51 46.8499 213.065 47.1435C212.624 47.4323 212.283 47.8111 212.042 48.2798C211.805 48.7438 211.687 49.2481 211.687 49.7926V51.0355C211.687 51.7647 211.815 52.3849 212.07 52.8963C212.331 53.4077 212.693 53.7983 213.157 54.0682C213.621 54.3333 214.163 54.4659 214.783 54.4659C215.186 54.4659 215.553 54.4091 215.884 54.2955C216.216 54.1771 216.502 54.0019 216.744 53.7699C216.985 53.5379 217.17 53.2514 217.298 52.9105L219.308 53.2727C219.147 53.8646 218.858 54.383 218.441 54.8281C218.029 55.2685 217.511 55.6117 216.886 55.858C216.265 56.0994 215.558 56.2202 214.762 56.2202ZM223.922 49.5227V56H221.799V45.0909H223.837V46.8665H223.972C224.223 46.2888 224.616 45.8248 225.151 45.4744C225.691 45.1241 226.37 44.9489 227.189 44.9489C227.933 44.9489 228.584 45.1051 229.142 45.4176C229.701 45.7254 230.134 46.1847 230.442 46.7955C230.75 47.4062 230.904 48.1615 230.904 49.0611V56H228.78V49.3168C228.78 48.526 228.574 47.9081 228.162 47.4631C227.75 47.0133 227.185 46.7884 226.465 46.7884C225.972 46.7884 225.534 46.8949 225.151 47.108C224.772 47.321 224.471 47.6335 224.249 48.0455C224.031 48.4527 223.922 48.9451 223.922 49.5227ZM238.844 45.0909V46.7955H232.885V45.0909H238.844ZM234.483 42.4773H236.607V52.7969C236.607 53.2088 236.668 53.5189 236.792 53.7273C236.915 53.9309 237.073 54.0705 237.267 54.1463C237.466 54.2173 237.682 54.2528 237.914 54.2528C238.084 54.2528 238.233 54.241 238.361 54.2173C238.489 54.1937 238.588 54.1747 238.659 54.1605L239.043 55.9148C238.92 55.9621 238.745 56.0095 238.517 56.0568C238.29 56.1089 238.006 56.1373 237.665 56.142C237.106 56.1515 236.586 56.0521 236.103 55.8438C235.62 55.6354 235.229 55.3134 234.931 54.8778C234.632 54.4422 234.483 53.8954 234.483 53.2372V42.4773ZM254.661 47.7543L252.736 48.0952C252.656 47.849 252.528 47.6146 252.353 47.392C252.182 47.1695 251.95 46.9872 251.657 46.8452C251.363 46.7031 250.996 46.6321 250.556 46.6321C249.954 46.6321 249.453 46.767 249.05 47.0369C248.648 47.3021 248.446 47.6454 248.446 48.0668C248.446 48.4313 248.581 48.7249 248.851 48.9474C249.121 49.17 249.557 49.3523 250.158 49.4943L251.891 49.892C252.895 50.1241 253.643 50.4815 254.135 50.9645C254.628 51.4474 254.874 52.0748 254.874 52.8466C254.874 53.5 254.685 54.0824 254.306 54.5938C253.932 55.1004 253.408 55.4981 252.736 55.7869C252.069 56.0758 251.294 56.2202 250.414 56.2202C249.192 56.2202 248.195 55.9598 247.424 55.4389C246.652 54.9134 246.178 54.1676 246.003 53.2017L248.056 52.8892C248.184 53.4242 248.446 53.8291 248.844 54.1037C249.242 54.3736 249.76 54.5085 250.4 54.5085C251.096 54.5085 251.652 54.3641 252.069 54.0753C252.485 53.7817 252.694 53.4242 252.694 53.0028C252.694 52.6619 252.566 52.3755 252.31 52.1435C252.059 51.9115 251.673 51.7363 251.152 51.6179L249.306 51.2131C248.288 50.9811 247.535 50.6117 247.047 50.1051C246.564 49.5985 246.323 48.9569 246.323 48.1804C246.323 47.5365 246.503 46.973 246.863 46.4901C247.222 46.0071 247.72 45.6307 248.354 45.3608C248.989 45.0862 249.715 44.9489 250.534 44.9489C251.713 44.9489 252.641 45.2045 253.319 45.7159C253.996 46.2225 254.443 46.902 254.661 47.7543ZM261.804 56.2202C260.748 56.2202 259.839 55.9811 259.077 55.5028C258.319 55.0199 257.737 54.3546 257.33 53.5071C256.922 52.6596 256.719 51.6889 256.719 50.5952C256.719 49.4872 256.927 48.5095 257.344 47.6619C257.76 46.8097 258.348 46.1444 259.105 45.6662C259.863 45.188 260.755 44.9489 261.783 44.9489C262.611 44.9489 263.35 45.1027 263.999 45.4105C264.647 45.7135 265.17 46.1397 265.568 46.6889C265.971 47.2382 266.21 47.8797 266.286 48.6136H264.219C264.105 48.1023 263.845 47.6619 263.438 47.2926C263.035 46.9233 262.495 46.7386 261.818 46.7386C261.226 46.7386 260.708 46.8949 260.263 47.2074C259.822 47.5152 259.479 47.9555 259.233 48.5284C258.987 49.0966 258.864 49.7689 258.864 50.5455C258.864 51.3409 258.984 52.0275 259.226 52.6051C259.467 53.1828 259.808 53.6302 260.249 53.9474C260.694 54.2647 261.217 54.4233 261.818 54.4233C262.221 54.4233 262.585 54.3499 262.912 54.2031C263.243 54.0516 263.52 53.8362 263.743 53.5568C263.97 53.2775 264.129 52.9413 264.219 52.5483H266.286C266.21 53.2538 265.98 53.8835 265.597 54.4375C265.213 54.9915 264.699 55.4271 264.055 55.7443C263.416 56.0616 262.666 56.2202 261.804 56.2202ZM270.68 49.5227V56H268.556V41.4545H270.652V46.8665H270.787C271.042 46.2794 271.433 45.813 271.958 45.4673C272.484 45.1217 273.171 44.9489 274.018 44.9489C274.766 44.9489 275.42 45.1027 275.978 45.4105C276.542 45.7183 276.977 46.1776 277.285 46.7884C277.598 47.3944 277.754 48.152 277.754 49.0611V56H275.63V49.3168C275.63 48.5166 275.424 47.8963 275.012 47.456C274.6 47.0109 274.028 46.7884 273.294 46.7884C272.792 46.7884 272.342 46.8949 271.944 47.108C271.551 47.321 271.241 47.6335 271.014 48.0455C270.791 48.4527 270.68 48.9451 270.68 49.5227ZM285.289 56.2202C284.215 56.2202 283.289 55.9905 282.512 55.5312C281.741 55.0672 281.144 54.4162 280.723 53.5781C280.306 52.7353 280.098 51.7481 280.098 50.6165C280.098 49.4991 280.306 48.5142 280.723 47.6619C281.144 46.8097 281.731 46.1444 282.484 45.6662C283.242 45.188 284.127 44.9489 285.14 44.9489C285.756 44.9489 286.352 45.0507 286.93 45.2543C287.508 45.4579 288.026 45.7775 288.485 46.2131C288.945 46.6487 289.307 47.2145 289.572 47.9105C289.837 48.6018 289.97 49.4422 289.97 50.4318V51.1847H281.298V49.5938H287.889C287.889 49.035 287.775 48.5402 287.548 48.1094C287.321 47.6738 287.001 47.3305 286.589 47.0795C286.182 46.8286 285.704 46.7031 285.154 46.7031C284.558 46.7031 284.037 46.8499 283.592 47.1435C283.152 47.4323 282.811 47.8111 282.569 48.2798C282.333 48.7438 282.214 49.2481 282.214 49.7926V51.0355C282.214 51.7647 282.342 52.3849 282.598 52.8963C282.858 53.4077 283.22 53.7983 283.684 54.0682C284.148 54.3333 284.69 54.4659 285.311 54.4659C285.713 54.4659 286.08 54.4091 286.412 54.2955C286.743 54.1771 287.029 54.0019 287.271 53.7699C287.512 53.5379 287.697 53.2514 287.825 52.9105L289.835 53.2727C289.674 53.8646 289.385 54.383 288.968 54.8281C288.556 55.2685 288.038 55.6117 287.413 55.858C286.793 56.0994 286.085 56.2202 285.289 56.2202ZM296.41 56.2131C295.529 56.2131 294.743 55.9882 294.052 55.5384C293.365 55.0838 292.826 54.4375 292.433 53.5994C292.044 52.7566 291.85 51.7457 291.85 50.5668C291.85 49.3878 292.047 48.3793 292.44 47.5412C292.837 46.7031 293.382 46.0616 294.073 45.6165C294.764 45.1714 295.548 44.9489 296.424 44.9489C297.101 44.9489 297.646 45.0625 298.058 45.2898C298.474 45.5123 298.796 45.7727 299.023 46.071C299.255 46.3693 299.435 46.6321 299.563 46.8594H299.691V41.4545H301.815V56H299.741V54.3026H299.563C299.435 54.5346 299.251 54.7997 299.009 55.098C298.772 55.3963 298.446 55.6567 298.029 55.8793C297.612 56.1018 297.073 56.2131 296.41 56.2131ZM296.879 54.402C297.489 54.402 298.005 54.241 298.427 53.919C298.853 53.5923 299.175 53.1402 299.393 52.5625C299.615 51.9848 299.727 51.3125 299.727 50.5455C299.727 49.7879 299.618 49.125 299.4 48.5568C299.182 47.9886 298.862 47.5459 298.441 47.2287C298.02 46.9115 297.499 46.7528 296.879 46.7528C296.239 46.7528 295.707 46.9186 295.281 47.25C294.854 47.5814 294.532 48.0336 294.315 48.6065C294.102 49.1795 293.995 49.8258 293.995 50.5455C293.995 51.2746 294.104 51.9304 294.322 52.5128C294.54 53.0952 294.862 53.5568 295.288 53.8977C295.719 54.2339 296.249 54.402 296.879 54.402ZM311.756 51.4759V45.0909H313.887V56H311.799V54.1108H311.685C311.434 54.6932 311.032 55.1785 310.478 55.5668C309.928 55.9503 309.244 56.142 308.425 56.142C307.724 56.142 307.104 55.9882 306.564 55.6804C306.029 55.3679 305.608 54.9062 305.3 54.2955C304.997 53.6847 304.846 52.9295 304.846 52.0298V45.0909H306.969V51.7741C306.969 52.5175 307.175 53.1094 307.587 53.5497C307.999 53.9901 308.534 54.2102 309.192 54.2102C309.59 54.2102 309.985 54.1108 310.378 53.9119C310.776 53.7131 311.105 53.4124 311.365 53.0099C311.631 52.6075 311.761 52.0961 311.756 51.4759ZM318.864 41.4545V56H316.74V41.4545H318.864ZM326.422 56.2202C325.347 56.2202 324.422 55.9905 323.645 55.5312C322.873 55.0672 322.277 54.4162 321.855 53.5781C321.439 52.7353 321.23 51.7481 321.23 50.6165C321.23 49.4991 321.439 48.5142 321.855 47.6619C322.277 46.8097 322.864 46.1444 323.617 45.6662C324.374 45.188 325.26 44.9489 326.273 44.9489C326.889 44.9489 327.485 45.0507 328.063 45.2543C328.641 45.4579 329.159 45.7775 329.618 46.2131C330.078 46.6487 330.44 47.2145 330.705 47.9105C330.97 48.6018 331.103 49.4422 331.103 50.4318V51.1847H322.431V49.5938H329.022C329.022 49.035 328.908 48.5402 328.681 48.1094C328.453 47.6738 328.134 47.3305 327.722 47.0795C327.315 46.8286 326.837 46.7031 326.287 46.7031C325.691 46.7031 325.17 46.8499 324.725 47.1435C324.284 47.4323 323.944 47.8111 323.702 48.2798C323.465 48.7438 323.347 49.2481 323.347 49.7926V51.0355C323.347 51.7647 323.475 52.3849 323.73 52.8963C323.991 53.4077 324.353 53.7983 324.817 54.0682C325.281 54.3333 325.823 54.4659 326.444 54.4659C326.846 54.4659 327.213 54.4091 327.544 54.2955C327.876 54.1771 328.162 54.0019 328.404 53.7699C328.645 53.5379 328.83 53.2514 328.958 52.9105L330.968 53.2727C330.807 53.8646 330.518 54.383 330.101 54.8281C329.689 55.2685 329.171 55.6117 328.546 55.858C327.926 56.0994 327.218 56.2202 326.422 56.2202ZM337.543 56.2131C336.662 56.2131 335.876 55.9882 335.185 55.5384C334.498 55.0838 333.958 54.4375 333.565 53.5994C333.177 52.7566 332.983 51.7457 332.983 50.5668C332.983 49.3878 333.179 48.3793 333.572 47.5412C333.97 46.7031 334.515 46.0616 335.206 45.6165C335.897 45.1714 336.681 44.9489 337.557 44.9489C338.234 44.9489 338.778 45.0625 339.19 45.2898C339.607 45.5123 339.929 45.7727 340.156 46.071C340.388 46.3693 340.568 46.6321 340.696 46.8594H340.824V41.4545H342.947V56H340.874V54.3026H340.696C340.568 54.5346 340.384 54.7997 340.142 55.098C339.905 55.3963 339.579 55.6567 339.162 55.8793C338.745 56.1018 338.205 56.2131 337.543 56.2131ZM338.011 54.402C338.622 54.402 339.138 54.241 339.56 53.919C339.986 53.5923 340.308 53.1402 340.526 52.5625C340.748 51.9848 340.859 51.3125 340.859 50.5455C340.859 49.7879 340.75 49.125 340.533 48.5568C340.315 47.9886 339.995 47.5459 339.574 47.2287C339.152 46.9115 338.632 46.7528 338.011 46.7528C337.372 46.7528 336.839 46.9186 336.413 47.25C335.987 47.5814 335.665 48.0336 335.447 48.6065C335.234 49.1795 335.128 49.8258 335.128 50.5455C335.128 51.2746 335.237 51.9304 335.455 52.5128C335.672 53.0952 335.994 53.5568 336.42 53.8977C336.851 54.2339 337.382 54.402 338.011 54.402Z" fill="#292929"/>
</g>
<defs>
<filter id="filter0_d_5796_31065" x="0" y="0" width="389" height="102" filterUnits="userSpaceOnUse" color-interpolation-filters="sRGB">
<feFlood flood-opacity="0" result="BackgroundImageFix"/>
<feColorMatrix in="SourceAlpha" type="matrix" values="0 0 0 0 0 0 0 0 0 0 0 0 0 0 0 0 0 0 127 0" result="hardAlpha"/>
<feOffset dy="2"/>
<feGaussianBlur stdDeviation="5"/>
<feComposite in2="hardAlpha" operator="out"/>
<feColorMatrix type="matrix" values="0 0 0 0 0 0 0 0 0 0 0 0 0 0 0 0 0 0 0.1 0"/>
<feBlend mode="normal" in2="BackgroundImageFix" result="effect1_dropShadow_5796_31065"/>
<feBlend mode="normal" in="SourceGraphic" in2="effect1_dropShadow_5796_31065" result="shape"/>
</filter>
</defs>
</svg>
