<svg width="205" height="38" viewBox="0 0 205 38" fill="none" xmlns="http://www.w3.org/2000/svg">
<path d="M29.9172 12.8964C31.1703 14.9308 33.05 16.4957 35.3995 17.1217C36.1827 17.2782 36.9659 17.4347 37.7491 17.4347C38.219 17.4347 38.5323 17.4347 39.0022 17.2782C38.8456 16.3392 38.689 15.4003 38.5323 14.3048C37.7491 14.4613 36.9659 14.3048 36.1827 14.1483C34.6163 13.6789 33.3632 12.7399 32.4234 11.3315C31.6402 9.92304 31.3269 8.35811 31.7968 6.79318C31.9535 6.01072 32.4234 5.38475 32.8933 4.75877C32.1101 4.1328 31.4836 3.50683 30.5437 2.88086C29.7605 3.81982 29.2906 4.91527 28.9773 6.01072C28.3508 8.5146 28.6641 10.862 29.9172 12.8964Z" fill="#1A1A1D"/>
<path d="M35.3995 20.8759C33.05 21.5019 31.1703 22.9103 29.9172 25.1012C28.6641 27.1356 28.3508 29.6395 28.9773 31.9869C29.2906 33.2389 29.9172 34.1778 30.5437 35.1168C31.3269 34.4908 32.1101 33.8648 32.8933 33.2389C32.4234 32.6129 32.1101 31.9869 31.7968 31.2045C31.3269 29.6395 31.6402 28.0746 32.4234 26.6662C33.2066 25.2577 34.6163 24.3188 36.1827 23.8493C36.9659 23.6928 37.7491 23.5363 38.5323 23.6928C38.689 22.7538 38.8456 21.8149 39.0022 20.7194C37.7491 20.4064 36.6526 20.5629 35.3995 20.8759Z" fill="#1A1A1D"/>
<path d="M19.4187 34.0202C21.9249 34.0202 24.1178 35.5852 25.0577 37.7761C25.9975 37.4631 26.9373 37.1501 27.8772 36.6806C26.4674 33.3943 23.3346 31.0469 19.5753 31.0469C15.816 31.0469 12.5265 33.3943 11.2734 36.6806C12.2133 37.1501 13.1531 37.4631 14.0929 37.7761C14.8761 35.5852 16.9124 34.0202 19.4187 34.0202Z" fill="#1A1A1D"/>
<path d="M19.4159 6.9499C23.1753 6.9499 26.4647 4.6025 27.7178 1.31615C26.7779 0.846674 25.9948 0.533689 24.8983 0.220703C23.9584 2.4116 21.7655 3.97653 19.2593 3.97653C16.7531 3.97653 14.5601 2.4116 13.6203 0.220703C12.6804 0.533689 11.7406 0.846674 10.8008 1.31615C12.5238 4.6025 15.6566 6.9499 19.4159 6.9499Z" fill="#1A1A1D"/>
<path d="M9.08115 25.1018C7.82804 23.0674 5.94837 21.5024 3.59879 20.8765C2.34568 20.5635 1.2492 20.5635 -0.00390625 20.72C0.152733 21.6589 0.309372 22.5979 0.466011 23.6933C0.779288 23.6933 0.935927 23.6933 1.2492 23.6933C1.71912 23.6933 2.34568 23.6933 2.81559 23.8498C4.38198 24.3193 5.63509 25.2583 6.57493 26.6667C7.82804 28.8576 7.51476 31.518 6.10501 33.3959C6.8882 34.0219 7.51476 34.6478 8.45459 35.2738C10.4909 32.3004 10.9608 28.2316 9.08115 25.1018Z" fill="#1A1A1D"/>
<path d="M3.59879 17.1217C5.94837 16.4957 7.82804 15.0873 9.08115 12.8964C10.3343 10.862 10.6475 8.35811 10.021 6.01072C9.7077 4.75877 9.08115 3.81982 8.45459 2.88086C7.51476 3.50683 6.73157 4.1328 6.10501 4.75877C6.57493 5.38475 6.8882 6.01072 7.20148 6.79318C7.6714 8.35811 7.35812 9.92304 6.57493 11.3315C5.79173 12.7399 4.38198 13.6789 2.81559 14.1483C2.0324 14.3048 1.2492 14.4613 0.466011 14.3048C0.309372 15.2438 0.152733 16.1828 -0.00390625 17.2782C0.46601 17.2782 0.779288 17.4347 1.2492 17.4347C2.0324 17.4347 2.81559 17.4347 3.59879 17.1217Z" fill="#1A1A1D"/>
<g clip-path="url(#clip0_5477_29469)">
<mask id="path-7-inside-1_5477_29469" fill="white">
<path d="M28.6929 16.9289C29.1674 19.0419 28.8945 21.254 27.9208 23.1884C26.9471 25.1228 25.3328 26.6597 23.353 27.5373C21.3732 28.4148 19.1503 28.5788 17.0631 28.0012C14.976 27.4236 13.1536 26.1401 11.9067 24.3695C10.6597 22.5989 10.0653 20.4508 10.2246 18.291C10.3839 16.1313 11.2872 14.0936 12.7805 12.5252C14.2738 10.9567 16.2647 9.9546 18.414 9.68953C20.5634 9.42445 22.7381 9.91283 24.5677 11.0714L22.8866 13.7262C21.6712 12.9565 20.2265 12.6321 18.7987 12.8082C17.3708 12.9843 16.0482 13.65 15.0562 14.6919C14.0642 15.7338 13.4642 17.0875 13.3583 18.5222C13.2525 19.9569 13.6474 21.384 14.4758 22.5602C15.3041 23.7364 16.5147 24.589 17.9012 24.9727C19.2877 25.3565 20.7644 25.2475 22.0796 24.6646C23.3949 24.0816 24.4673 23.0606 25.1141 21.7756C25.7609 20.4906 25.9422 19.021 25.627 17.6173L28.6929 16.9289Z"/>
</mask>
<path d="M28.6929 16.9289C29.1674 19.0419 28.8945 21.254 27.9208 23.1884C26.9471 25.1228 25.3328 26.6597 23.353 27.5373C21.3732 28.4148 19.1503 28.5788 17.0631 28.0012C14.976 27.4236 13.1536 26.1401 11.9067 24.3695C10.6597 22.5989 10.0653 20.4508 10.2246 18.291C10.3839 16.1313 11.2872 14.0936 12.7805 12.5252C14.2738 10.9567 16.2647 9.9546 18.414 9.68953C20.5634 9.42445 22.7381 9.91283 24.5677 11.0714L22.8866 13.7262C21.6712 12.9565 20.2265 12.6321 18.7987 12.8082C17.3708 12.9843 16.0482 13.65 15.0562 14.6919C14.0642 15.7338 13.4642 17.0875 13.3583 18.5222C13.2525 19.9569 13.6474 21.384 14.4758 22.5602C15.3041 23.7364 16.5147 24.589 17.9012 24.9727C19.2877 25.3565 20.7644 25.2475 22.0796 24.6646C23.3949 24.0816 24.4673 23.0606 25.1141 21.7756C25.7609 20.4906 25.9422 19.021 25.627 17.6173L28.6929 16.9289Z" stroke="black" stroke-width="6.31556" mask="url(#path-7-inside-1_5477_29469)"/>
<path d="M15.9609 18.717L18.8932 21.6492L27.9154 12.627" stroke="black" stroke-width="2.25556" stroke-linecap="round" stroke-linejoin="round"/>
</g>
<path d="M74.2178 5.68473V31H70.7073L57.8395 12.4338H57.6047V31H53.7851V5.68473H57.3204L70.2005 24.2756H70.4354V5.68473H74.2178ZM87.6758 31.3832C85.8052 31.3832 84.1941 30.9835 82.8427 30.1842C81.4994 29.3766 80.4611 28.2435 79.7277 26.7849C79.0025 25.3181 78.6399 23.5999 78.6399 21.6304C78.6399 19.6856 79.0025 17.9715 79.7277 16.4882C80.4611 15.0049 81.483 13.8471 82.7932 13.0148C84.1117 12.1825 85.6527 11.7663 87.4162 11.7663C88.4875 11.7663 89.5258 11.9435 90.5312 12.2979C91.5366 12.6522 92.4389 13.2084 93.2383 13.9666C94.0376 14.7247 94.668 15.7095 95.1295 16.9209C95.591 18.124 95.8217 19.5867 95.8217 21.309V22.6193H80.7289V19.8504H92.1999C92.1999 18.878 92.0022 18.0169 91.6066 17.267C91.2111 16.5088 90.6548 15.9114 89.9379 15.4746C89.2292 15.0379 88.3969 14.8195 87.441 14.8195C86.4026 14.8195 85.4962 15.075 84.7215 15.5859C83.9552 16.0885 83.3618 16.7478 82.9416 17.5636C82.5295 18.3712 82.3235 19.2488 82.3235 20.1965V22.3597C82.3235 23.6287 82.546 24.7083 82.991 25.5983C83.4442 26.4882 84.0747 27.1681 84.8822 27.6378C85.6898 28.0993 86.6334 28.33 87.7129 28.33C88.4134 28.33 89.052 28.2311 89.6288 28.0334C90.2057 27.8274 90.7043 27.5224 91.1245 27.1187C91.5448 26.7149 91.8662 26.2163 92.0887 25.623L95.5868 26.2534C95.3067 27.2835 94.804 28.1858 94.0788 28.9604C93.3619 29.7268 92.4595 30.3243 91.3717 30.7528C90.2922 31.1731 89.0602 31.3832 87.6758 31.3832ZM111.95 23.1261V12.0135H115.658V31H112.024V27.712H111.826C111.389 28.7256 110.689 29.5702 109.725 30.246C108.769 30.9135 107.578 31.2472 106.152 31.2472C104.933 31.2472 103.853 30.9794 102.914 30.4438C101.983 29.8999 101.249 29.0964 100.714 28.0334C100.186 26.9703 99.9224 25.6559 99.9224 24.0902V12.0135H103.618V23.6452C103.618 24.939 103.977 25.9691 104.694 26.7355C105.411 27.5018 106.342 27.885 107.487 27.885C108.18 27.885 108.868 27.712 109.552 27.3659C110.244 27.0198 110.817 26.4965 111.27 25.796C111.731 25.0956 111.958 24.2056 111.95 23.1261ZM120.624 31V12.0135H124.196V15.0296H124.394C124.74 14.0078 125.35 13.2043 126.223 12.6192C127.105 12.0259 128.102 11.7292 129.215 11.7292C129.446 11.7292 129.718 11.7375 130.031 11.754C130.352 11.7705 130.603 11.7911 130.785 11.8158V15.351C130.636 15.3098 130.373 15.2645 129.994 15.215C129.615 15.1574 129.235 15.1285 128.856 15.1285C127.983 15.1285 127.204 15.3139 126.52 15.6848C125.844 16.0473 125.309 16.5541 124.913 17.2052C124.518 17.8479 124.32 18.5813 124.32 19.4054V31H120.624ZM143.968 12.0135V14.9802H133.597V12.0135H143.968ZM136.378 7.46471H140.074V25.4252C140.074 26.1421 140.181 26.6819 140.395 27.0445C140.61 27.3988 140.886 27.6419 141.224 27.7738C141.57 27.8974 141.945 27.9592 142.348 27.9592C142.645 27.9592 142.905 27.9386 143.127 27.8974C143.35 27.8562 143.523 27.8232 143.646 27.7985L144.314 30.8517C144.1 30.9341 143.795 31.0165 143.399 31.0989C143.004 31.1895 142.509 31.239 141.916 31.2472C140.943 31.2637 140.037 31.0906 139.196 30.7281C138.356 30.3655 137.676 29.8051 137.157 29.047C136.638 28.2888 136.378 27.337 136.378 26.1916V7.46471ZM153.581 31.4203C152.378 31.4203 151.291 31.1978 150.318 30.7528C149.346 30.2995 148.575 29.6444 148.007 28.7874C147.446 27.9304 147.166 26.8797 147.166 25.6353C147.166 24.5641 147.372 23.6823 147.784 22.9901C148.196 22.2979 148.752 21.7499 149.453 21.3461C150.153 20.9423 150.936 20.6374 151.801 20.4314C152.667 20.2254 153.548 20.0688 154.447 19.9617C155.584 19.8298 156.507 19.7227 157.216 19.6403C157.924 19.5496 158.439 19.4054 158.761 19.2076C159.082 19.0099 159.243 18.6885 159.243 18.2435V18.157C159.243 17.0774 158.938 16.241 158.328 15.6477C157.726 15.0543 156.828 14.7577 155.633 14.7577C154.389 14.7577 153.408 15.0337 152.691 15.5859C151.983 16.1298 151.492 16.7354 151.22 17.4029L147.747 16.6118C148.159 15.4581 148.761 14.5269 149.552 13.8183C150.351 13.1013 151.27 12.5822 152.308 12.2608C153.347 11.9311 154.438 11.7663 155.584 11.7663C156.342 11.7663 157.145 11.857 157.994 12.0383C158.851 12.2113 159.651 12.5327 160.392 13.0024C161.142 13.4721 161.756 14.1438 162.234 15.0173C162.712 15.8825 162.951 17.0074 162.951 18.3918V31H159.342V28.4042H159.193C158.954 28.8822 158.596 29.3519 158.118 29.8133C157.64 30.2748 157.026 30.658 156.276 30.9629C155.526 31.2678 154.628 31.4203 153.581 31.4203ZM154.385 28.4536C155.407 28.4536 156.28 28.2517 157.005 27.848C157.739 27.4442 158.295 26.9168 158.674 26.2657C159.061 25.6065 159.255 24.9019 159.255 24.152V21.7046C159.123 21.8364 158.868 21.96 158.489 22.0754C158.118 22.1825 157.693 22.2773 157.216 22.3597C156.738 22.4338 156.272 22.5039 155.819 22.5698C155.366 22.6275 154.986 22.6769 154.682 22.7182C153.965 22.8088 153.309 22.9612 152.716 23.1755C152.131 23.3898 151.661 23.6988 151.307 24.1026C150.961 24.4981 150.788 25.0255 150.788 25.6848C150.788 26.5995 151.126 27.2917 151.801 27.7614C152.477 28.2229 153.338 28.4536 154.385 28.4536ZM182.101 16.6489L178.751 17.2422C178.611 16.8137 178.389 16.4058 178.084 16.0185C177.787 15.6312 177.383 15.3139 176.873 15.0667C176.362 14.8195 175.723 14.6959 174.957 14.6959C173.91 14.6959 173.037 14.9307 172.336 15.4005C171.636 15.8619 171.285 16.4594 171.285 17.1928C171.285 17.8273 171.52 18.3382 171.99 18.7256C172.46 19.1129 173.218 19.4301 174.264 19.6774L177.28 20.3696C179.027 20.7734 180.33 21.3955 181.187 22.2361C182.044 23.0766 182.472 24.1685 182.472 25.5117C182.472 26.6489 182.142 27.6625 181.483 28.5525C180.832 29.4343 179.922 30.1265 178.751 30.6292C177.59 31.1319 176.242 31.3832 174.709 31.3832C172.583 31.3832 170.849 30.93 169.505 30.0235C168.162 29.1088 167.338 27.8109 167.033 26.1298L170.606 25.5859C170.828 26.5171 171.285 27.2217 171.978 27.6996C172.67 28.1693 173.572 28.4042 174.685 28.4042C175.896 28.4042 176.864 28.1529 177.59 27.6502C178.315 27.1393 178.677 26.5171 178.677 25.7837C178.677 25.1903 178.455 24.6918 178.01 24.288C177.573 23.8842 176.901 23.5793 175.995 23.3733L172.781 22.6687C171.009 22.2649 169.699 21.6221 168.85 20.7404C168.01 19.8586 167.589 18.742 167.589 17.3906C167.589 16.2698 167.903 15.2892 168.529 14.4487C169.155 13.6081 170.02 12.953 171.125 12.4833C172.229 12.0053 173.494 11.7663 174.92 11.7663C176.971 11.7663 178.587 12.2113 179.765 13.1013C180.943 13.9831 181.722 15.1656 182.101 16.6489ZM189.935 24.5599L189.91 20.0482H190.553L198.118 12.0135H202.543L193.915 21.1607H193.334L189.935 24.5599ZM186.536 31V5.68473H190.232V31H186.536ZM198.526 31L191.727 21.9765L194.274 19.393L203.062 31H198.526Z" fill="#292929"/>
<defs>
<clipPath id="clip0_5477_29469">
<rect width="20.467" height="20.467" fill="white" transform="translate(9.42188 8.79492)"/>
</clipPath>
</defs>
</svg>
